<?xml version="1.0" encoding="UTF-8" standalone="no"?>
<!DOCTYPE svg PUBLIC "-//W3C//DTD SVG 1.1//EN"
 "http://www.w3.org/Graphics/SVG/1.1/DTD/svg11.dtd">
<!-- Generated by graphviz version 2.36.0 (20140111.2315)
 -->
<!-- Title: G Pages: 1 -->
<svg width="233pt" height="106pt"
 viewBox="0.00 0.00 233.20 106.20" xmlns="http://www.w3.org/2000/svg" xmlns:xlink="http://www.w3.org/1999/xlink">
<g id="graph0" class="graph" transform="scale(1 1) rotate(0) translate(21.6 84.6)">
<title>G</title>
<polygon fill="#111111" stroke="none" points="-21.6,21.6 -21.6,-84.6 211.6,-84.6 211.6,21.6 -21.6,21.6"/>
<!-- cookie.js -->
<g id="node1" class="node"><title>cookie.js</title>
<path fill="none" stroke="#cfffac" d="M179.833,-63.5C179.833,-63.5 124.167,-63.5 124.167,-63.5 120.333,-63.5 116.5,-59.6667 116.5,-55.8333 116.5,-55.8333 116.5,-48.1667 116.5,-48.1667 116.5,-44.3333 120.333,-40.5 124.167,-40.5 124.167,-40.5 179.833,-40.5 179.833,-40.5 183.667,-40.5 187.5,-44.3333 187.5,-48.1667 187.5,-48.1667 187.5,-55.8333 187.5,-55.8333 187.5,-59.6667 183.667,-63.5 179.833,-63.5"/>
<text text-anchor="middle" x="152" y="-48.3" font-family="Arial" font-size="14.00" fill="#cfffac">cookie.js</text>
</g>
<!-- cookies.js -->
<g id="node2" class="node"><title>cookies.js</title>
<path fill="none" stroke="#c6c5fe" d="M70.3333,-42.5C70.3333,-42.5 7.66667,-42.5 7.66667,-42.5 3.83333,-42.5 0,-38.6667 0,-34.8333 0,-34.8333 0,-27.1667 0,-27.1667 0,-23.3333 3.83333,-19.5 7.66667,-19.5 7.66667,-19.5 70.3333,-19.5 70.3333,-19.5 74.1667,-19.5 78,-23.3333 78,-27.1667 78,-27.1667 78,-34.8333 78,-34.8333 78,-38.6667 74.1667,-42.5 70.3333,-42.5"/>
<text text-anchor="middle" x="39" y="-27.3" font-family="Arial" font-size="14.00" fill="#c6c5fe">cookies.js</text>
</g>
<!-- cookies.js&#45;&gt;cookie.js -->
<g id="edge1" class="edge"><title>cookies.js&#45;&gt;cookie.js</title>
<path fill="none" stroke="#757575" d="M78.1999,-38.227C87.3186,-39.9522 97.1295,-41.8083 106.504,-43.5819"/>
<polygon fill="#757575" stroke="#757575" points="105.975,-47.0439 116.452,-45.4639 107.277,-40.1659 105.975,-47.0439"/>
</g>
<!-- keygrip.js -->
<g id="node3" class="node"><title>keygrip.js</title>
<path fill="none" stroke="#cfffac" d="M182.333,-22.5C182.333,-22.5 121.667,-22.5 121.667,-22.5 117.833,-22.5 114,-18.6667 114,-14.8333 114,-14.8333 114,-7.16667 114,-7.16667 114,-3.33333 117.833,0.5 121.667,0.5 121.667,0.5 182.333,0.5 182.333,0.5 186.167,0.5 190,-3.33333 190,-7.16667 190,-7.16667 190,-14.8333 190,-14.8333 190,-18.6667 186.167,-22.5 182.333,-22.5"/>
<text text-anchor="middle" x="152" y="-7.3" font-family="Arial" font-size="14.00" fill="#cfffac">keygrip.js</text>
</g>
<!-- cookies.js&#45;&gt;keygrip.js -->
<g id="edge2" class="edge"><title>cookies.js&#45;&gt;keygrip.js</title>
<path fill="none" stroke="#757575" d="M78.1999,-24.1171C86.4935,-22.6228 95.3598,-21.0253 103.95,-19.4776"/>
<polygon fill="#757575" stroke="#757575" points="104.634,-22.9106 113.855,-17.6927 103.393,-16.0215 104.634,-22.9106"/>
</g>
</g>
</svg>
